<svg width="64" height="64" viewBox="0 0 64 64" fill="none" xmlns="http://www.w3.org/2000/svg">
  <defs>
    <linearGradient id="grad1" x1="0%" y1="0%" x2="100%" y2="100%">
      <stop offset="0%" style="stop-color:#fd7a45;stop-opacity:1" />
      <stop offset="100%" style="stop-color:#ff9f76;stop-opacity:1" />
    </linearGradient>
  </defs>
  <path d="M32 4 C14 4 4 14 4 32 C4 50 14 60 32 60 C50 60 60 50 60 32 C60 14 50 4 32 4 Z" fill="url(#grad1)"/>
  <path d="M22 20 C20.8954 20 20 20.8954 20 22 C20 23.1046 20.8954 24 22 24 H28 V44 C28 46.2091 29.7909 48 32 48 C34.2091 48 36 46.2091 36 44 V24 H42 C43.1046 24 44 23.1046 44 22 C44 20.8954 43.1046 20 42 20 H22 Z" fill="white"/>
</svg>
                